HIERARCHY
ROOT Hips
{
  OFFSET 5.72205e-005 65.662 3.42586
  CHANNELS 6 Xposition Yposition Zposition Zrotation Xrotation Yrotation
  JOINT Chest
  {
    OFFSET 0 8.7983 -4.7612
    CHANNELS 3 Zrotation Xrotation Yrotation
    JOINT Chest2
    {
      OFFSET 0 8.0291 0.4195
      CHANNELS 3 Zrotation Xrotation Yrotation
      JOINT Chest3
      {
        OFFSET 0 9.9351 -2.2114
        CHANNELS 3 Zrotation Xrotation Yrotation
        JOINT Neck
        {
          OFFSET 0 22.3885 -0.4656
          CHANNELS 3 Zrotation Xrotation Yrotation
          JOINT Head
          {
            OFFSET -0.0001 12.643 3.4389
            CHANNELS 3 Zrotation Xrotation Yrotation
            End Site
            {
              OFFSET 0.0001 17.6655 0.5274
            }
          }
        }
        JOINT LeftCollar
        {
          OFFSET 2.2603 21.606 7.4023
          CHANNELS 3 Zrotation Xrotation Yrotation
          JOINT LeftShoulder
          {
            OFFSET 13.5163 -1.1332 -5.0146
            CHANNELS 3 Zrotation Xrotation Yrotation
            JOINT LeftElbow
            {
              OFFSET -0.0995 -28.05 -0.2431
              CHANNELS 3 Zrotation Xrotation Yrotation
              JOINT LeftWrist
              {
                OFFSET 0.0679 -23.3996 -0.1402
                CHANNELS 3 Zrotation Xrotation Yrotation
                JOINT LeftFinger1
                {
                  OFFSET 0.7932 -9.069 2.5189
                  CHANNELS 3 Zrotation Xrotation Yrotation
                  JOINT LeftFinger11
                  {
                    OFFSET -0.8272 -3.3923 0.5977
                    CHANNELS 3 Zrotation Xrotation Yrotation
                    JOINT LeftFinger12
                    {
                      OFFSET -0.5649 -2.3158 0.4082
                      CHANNELS 3 Zrotation Xrotation Yrotation
                      End Site
                      {
                        OFFSET -0.4919 -1.6479 0.2673
                      }
                    }
                  }
                }
                JOINT LeftFinger2
                {
                  OFFSET 0.9159 -9.2044 0.2193
                  CHANNELS 3 Zrotation Xrotation Yrotation
                  JOINT LeftFinger21
                  {
                    OFFSET 0.0117 -4.1944 -0.0248
                    CHANNELS 3 Zrotation Xrotation Yrotation
                    JOINT LeftFinger22
                    {
                      OFFSET 0.0071 -2.3249 -0.0142
                      CHANNELS 3 Zrotation Xrotation Yrotation
                      End Site
                      {
                        OFFSET -0.1475 -2.0882 0.0028
                      }
                    }
                  }
                }
                JOINT LeftFinger3
                {
                  OFFSET 0.6113 -8.7231 -2.0637
                  CHANNELS 3 Zrotation Xrotation Yrotation
                  JOINT LeftFinger31
                  {
                    OFFSET -0.1927 -3.8059 -0.2383
                    CHANNELS 3 Zrotation Xrotation Yrotation
                    JOINT LeftFinger32
                    {
                      OFFSET -0.1091 -2.1688 -0.1362
                      CHANNELS 3 Zrotation Xrotation Yrotation
                      End Site
                      {
                        OFFSET -0.2358 -1.9176 -0.0906
                      }
                    }
                  }
                }
                JOINT LeftFinger4
                {
                  OFFSET -0.6151 -8.0947 -3.5641
                  CHANNELS 3 Zrotation Xrotation Yrotation
                  JOINT LeftFinger41
                  {
                    OFFSET -0.4882 -2.341 -0.6462
                    CHANNELS 3 Zrotation Xrotation Yrotation
                    JOINT LeftFinger42
                    {
                      OFFSET -0.3575 -1.7167 -0.4742
                      CHANNELS 3 Zrotation Xrotation Yrotation
                      End Site
                      {
                        OFFSET -0.4187 -1.5237 -0.3496
                      }
                    }
                  }
                }
                JOINT LeftFinger0
                {
                  OFFSET -1.42 -1.8761 1.4223
                  CHANNELS 3 Zrotation Xrotation Yrotation
                  JOINT LeftFinger01
                  {
                    OFFSET -1.1471 -3.4929 2.6334
                    CHANNELS 3 Zrotation Xrotation Yrotation
                    JOINT LeftFinger02
                    {
                      OFFSET -0.823 -2.3 1.6571
                      CHANNELS 3 Zrotation Xrotation Yrotation
                      End Site
                      {
                        OFFSET -0.5822 -1.6914 1.1582
                      }
                    }
                  }
                }
              }
            }
          }
        }
        JOINT RightCollar
        {
          OFFSET -2.2603 21.606 7.4023
          CHANNELS 3 Zrotation Xrotation Yrotation
          JOINT RightShoulder
          {
            OFFSET -13.5187 -1.1334 -5.0155
            CHANNELS 3 Zrotation Xrotation Yrotation
            JOINT RightElbow
            {
              OFFSET 0.0994 -28.0499 -0.2431
              CHANNELS 3 Zrotation Xrotation Yrotation
              JOINT RightWrist
              {
                OFFSET -0.0679 -23.3996 -0.1402
                CHANNELS 3 Zrotation Xrotation Yrotation
                JOINT RightFinger1
                {
                  OFFSET -0.7932 -9.0691 2.5189
                  CHANNELS 3 Zrotation Xrotation Yrotation
                  JOINT RightFinger11
                  {
                    OFFSET 0.8272 -3.3923 0.5977
                    CHANNELS 3 Zrotation Xrotation Yrotation
                    JOINT RightFinger12
                    {
                      OFFSET 0.565 -2.3158 0.4082
                      CHANNELS 3 Zrotation Xrotation Yrotation
                      End Site
                      {
                        OFFSET 0.4919 -1.6479 0.2673
                      }
                    }
                  }
                }
                JOINT RightFinger2
                {
                  OFFSET -0.916 -9.2044 0.2193
                  CHANNELS 3 Zrotation Xrotation Yrotation
                  JOINT RightFinger21
                  {
                    OFFSET -0.0117 -4.1944 -0.0248
                    CHANNELS 3 Zrotation Xrotation Yrotation
                    JOINT RightFinger22
                    {
                      OFFSET -0.0071 -2.3249 -0.0142
                      CHANNELS 3 Zrotation Xrotation Yrotation
                      End Site
                      {
                        OFFSET 0.1475 -2.0882 0.0028
                      }
                    }
                  }
                }
                JOINT RightFinger3
                {
                  OFFSET -0.6113 -8.7231 -2.0637
                  CHANNELS 3 Zrotation Xrotation Yrotation
                  JOINT RightFinger31
                  {
                    OFFSET 0.1927 -3.8059 -0.2383
                    CHANNELS 3 Zrotation Xrotation Yrotation
                    JOINT RightFinger32
                    {
                      OFFSET 0.1091 -2.1688 -0.1362
                      CHANNELS 3 Zrotation Xrotation Yrotation
                      End Site
                      {
                        OFFSET 0.2358 -1.9176 -0.0906
                      }
                    }
                  }
                }
                JOINT RightFinger4
                {
                  OFFSET 0.6151 -8.0947 -3.564
                  CHANNELS 3 Zrotation Xrotation Yrotation
                  JOINT RightFinger41
                  {
                    OFFSET 0.4882 -2.341 -0.6462
                    CHANNELS 3 Zrotation Xrotation Yrotation
                    JOINT RightFinger42
                    {
                      OFFSET 0.3574 -1.7166 -0.4742
                      CHANNELS 3 Zrotation Xrotation Yrotation
                      End Site
                      {
                        OFFSET 0.4187 -1.5237 -0.3496
                      }
                    }
                  }
                }
                JOINT RightFinger0
                {
                  OFFSET 1.4199 -1.8761 1.4221
                  CHANNELS 3 Zrotation Xrotation Yrotation
                  JOINT RightFinger01
                  {
                    OFFSET 1.1472 -3.4929 2.6336
                    CHANNELS 3 Zrotation Xrotation Yrotation
                    JOINT RightFinger02
                    {
                      OFFSET 0.8229 -2.3 1.6571
                      CHANNELS 3 Zrotation Xrotation Yrotation
                      End Site
                      {
                        OFFSET 0.5822 -1.6914 1.1582
                      }
                    }
                  }
                }
              }
            }
          }
        }
      }
    }
  }
  JOINT RightHip
  {
    OFFSET -9.412 3.9771 -0.7758
    CHANNELS 3 Zrotation Xrotation Yrotation
    JOINT RightKnee
    {
      OFFSET -0.7531 -40.938 0
      CHANNELS 3 Zrotation Xrotation Yrotation
      JOINT RightAnkle
      {
        OFFSET 0 -40.1986 0
        CHANNELS 3 Zrotation Xrotation Yrotation
        JOINT RightToe
        {
          OFFSET 0 -4.4182 9.239
          CHANNELS 3 Zrotation Xrotation Yrotation
          End Site
          {
            OFFSET 0 0 6.1981
          }
        }
      }
    }
  }
  JOINT LeftHip
  {
    OFFSET 9.4119 3.9773 -0.7758
    CHANNELS 3 Zrotation Xrotation Yrotation
    JOINT LeftKnee
    {
      OFFSET 0.7532 -40.9383 0
      CHANNELS 3 Zrotation Xrotation Yrotation
      JOINT LeftAnkle
      {
        OFFSET 0 -40.1986 0
        CHANNELS 3 Zrotation Xrotation Yrotation
        JOINT LeftToe
        {
          OFFSET 0 -4.4182 9.239
          CHANNELS 3 Zrotation Xrotation Yrotation
          End Site
          {
            OFFSET 0 0 6.1981
          }
        }
      }
    }
  }
}
MOTION
Frames:	7
Frame Time:	0.0333333
5.72205e-005 65.662 3.42586 0 0 -0 0 0 -0 0 0 -0 0 0 -0 0 0 -0 0 0 -0 0 0 -12.5014 88.1196 14.2451 10.6914 -0.00160068 -0.00239207 0.000740045 -8.4365e-005 7.00714e-005 -9.52055e-007 9.93923e-017 -1.98785e-016 -1.59028e-015 9.93923e-017 -5.96354e-016 -1.59028e-015 -9.93923e-017 -5.96354e-016 -1.59028e-015 9.93923e-017 -1.98785e-016 -1.59028e-015 -0.0128176 0.00232552 8.52707e-005 9.93923e-017 5.96354e-016 -0 9.93923e-017 -1.98785e-016 -1.59028e-015 -0.0160551 0.00299681 0.000857156 -2.48481e-016 0 3.18055e-015 9.93923e-017 -1.98785e-016 -1.59028e-015 -0.0125865 0.0031206 0.00282719 0 1.98785e-016 -0 9.93923e-017 -1.98785e-016 -1.59028e-015 9.93923e-017 -5.96354e-016 -1.59028e-015 -9.93923e-017 -5.96354e-016 -1.59028e-015 -0.865644 0.16582 7.03859 -88.0329 10.2057 -10.5567 0.0015593 -0.00248883 -0.000788628 7.87605e-005 4.10553e-005 1.24965e-005 -3.97569e-016 -7.95139e-016 3.18055e-015 -1.98785e-016 -3.97569e-016 3.18055e-015 -1.98785e-016 0 3.18055e-015 -3.97569e-016 -7.95139e-016 3.18055e-015 0.0129473 0.00231697 -8.70038e-005 9.93923e-017 -7.95139e-016 1.59028e-015 -3.97569e-016 -7.95139e-016 3.18055e-015 0.0163314 0.00303369 -0.000872333 3.97569e-016 7.95139e-016 -3.18055e-015 -3.97569e-016 -7.95139e-016 3.18055e-015 0.0145763 0.00367772 -0.00326275 9.93923e-017 -3.97569e-016 -0 -3.97569e-016 -7.95139e-016 3.18055e-015 -1.98785e-016 -3.97569e-016 3.18055e-015 -1.98785e-016 0 3.18055e-015 3.42482 1.32465 -0.0626183 0.000117508 0.717283 0.000978199 -3.4257 -2.04197 -0.0604716 6.47761e-025 0 -0 -3.42483 1.34017 0.0627307 -0.000193936 0.682302 -0.0013703 3.42574 -2.02253 0.0595886 -8.45714e-024 0 -7.40531e-025 
0.238781 79.5204 9.16885 -180 -82.9837 -180 -0.0212626 3.80204 -0.109886 -0.0353156 7.60412 -0.21908 -0.0353156 7.6041 -0.219081 -1.27171e-009 17.9983 1.9783e-007 2.24831e-008 8.99856 6.82763e-008 -9.63566 34.7484 -11.0112 42.1833 -55.5307 37.2 -19.9538 -25.9335 23.1169 -14.6418 -1.28695 -30.2608 3.67655e-006 -1.18595e-006 3.16041e-006 -2.64834e-031 -3.18055e-015 -4.77083e-015 -4.77083e-015 -9.54166e-015 -6.36111e-015 3.67655e-006 -1.18595e-006 3.16041e-006 -0.0127822 0.00231105 8.75962e-005 -3.02722e-007 5.0672e-006 2.50767e-006 3.67655e-006 -1.18595e-006 3.16041e-006 -0.016046 0.0029984 0.000861492 1.59028e-015 6.36111e-015 -4.77083e-015 3.67655e-006 -1.18595e-006 3.16041e-006 -0.0125843 0.00312311 0.00283096 -1.11319e-014 -6.36111e-015 -3.18055e-015 3.67655e-006 -1.18595e-006 3.16041e-006 -2.64834e-031 -3.18055e-015 -4.77083e-015 -4.77083e-015 -9.54166e-015 -6.36111e-015 -36.4866 -0.0939949 -5.73881 8.73801 49.4017 -31.6281 63.4144 -35.2996 103.079 6.54724 12.5009 11.1478 -2.79443e-006 -1.03905e-005 7.4162e-007 -3.83622e-006 2.32391e-006 -2.3315e-006 2.04565e-006 2.12819e-006 1.30863e-005 -2.79443e-006 -1.03905e-005 7.4162e-007 0.0129461 0.00232068 -8.66699e-005 -2.95655e-006 8.26648e-007 -2.94603e-006 -2.79443e-006 -1.03905e-005 7.4162e-007 0.0162981 0.00303765 -0.000875084 1.19271e-015 9.54166e-015 2.78299e-015 -2.79443e-006 -1.03905e-005 7.4162e-007 0.0145621 0.00367721 -0.00325528 -3.31533e-006 1.19063e-006 -7.95141e-007 -2.79443e-006 -1.03905e-005 7.4162e-007 -3.83622e-006 2.32391e-006 -2.3315e-006 2.04565e-006 2.12819e-006 1.30863e-005 -9.87269 -8.68034 -7.67318 4.46964 47.5253 -4.0045 -11.371 11.8085 4.16506 4.48138e-007 8.3297e-008 -4.56967e-007 16.3952 5.33595 1.16365 -0.388271 15.8723 0.267281 8.20375 8.03255 -0.320397 6.61937e-007 -5.96761e-007 -1.57373e-006 
0.239196 79.2988 9.14614 180 -83.4841 180 -0.0227982 3.87699 -0.110315 -0.0382263 7.75402 -0.219838 -0.0382263 7.75403 -0.219839 -0.0504936 17.7455 -0.00440899 0.012187 8.93914 -0.0741344 -9.41333 34.0898 -11.1377 42.1832 -55.5308 37.1999 -20.1141 -26.0766 23.0472 -14.6418 -1.28691 -30.2608 1.59028e-015 6.36111e-015 -4.77083e-015 6.1255e-006 -6.78996e-006 6.32549e-006 -1.59028e-015 6.36111e-015 1.59028e-015 1.59028e-015 6.36111e-015 -4.77083e-015 -0.0128296 0.00231873 8.68173e-005 7.95139e-015 -6.36111e-015 -0 1.59028e-015 6.36111e-015 -4.77083e-015 -0.0160786 0.00299509 0.00086035 -3.04997e-006 -1.08784e-005 2.67675e-006 1.59028e-015 6.36111e-015 -4.77083e-015 -0.0126944 0.00314928 0.00285626 -6.10785e-006 -1.10308e-005 -6.01984e-007 1.59028e-015 6.36111e-015 -4.77083e-015 6.1255e-006 -6.78996e-006 6.32549e-006 -1.59028e-015 6.36111e-015 1.59028e-015 -34.9364 0.223354 -5.54087 8.07385 48.627 -30.8818 63.0622 -37.4149 101.991 6.7846 12.3089 12.0801 3.97569e-016 0 5.56597e-015 3.97569e-016 1.59028e-015 5.76476e-015 -2.59317e-031 1.59028e-015 9.34288e-015 3.97569e-016 0 5.56597e-015 0.0129286 0.00232792 -8.51557e-005 -7.95139e-016 1.59028e-015 -8.94531e-016 3.97569e-016 0 5.56597e-015 0.0163246 0.00303306 -0.000867723 -4.42933e-006 2.33969e-007 -1.09539e-005 3.97569e-016 0 5.56597e-015 0.0144915 0.00366465 -0.00324025 0 0 -1.49089e-015 3.97569e-016 0 5.56597e-015 3.97569e-016 1.59028e-015 5.76476e-015 -2.59317e-031 1.59028e-015 9.34288e-015 -9.84607 -9.30323 -7.62883 4.47548 47.5585 -4.01331 -11.3216 11.9988 4.05961 1.94516e-006 1.7633e-007 4.01632e-007 16.3962 4.79874 1.17627 -0.388338 15.9064 0.272275 8.21111 8.25016 -0.221516 -2.8855e-006 5.2094e-008 -1.19851e-006 
0.239613 79.0768 9.12292 180 -83.9846 180 -0.0243304 3.9521 -0.110757 -0.041129 7.90425 -0.220617 -0.041129 7.90425 -0.220617 -0.100983 17.4925 -0.00904869 0.0242972 8.87967 -0.14826 -9.1943 33.4303 -11.2603 42.1833 -55.5307 37.2 -20.2751 -26.2197 22.9769 -14.6418 -1.2869 -30.2609 1.59028e-015 -6.36111e-015 -3.18055e-015 6.36111e-015 0 -3.18055e-015 6.36111e-015 0 -3.18055e-015 1.59028e-015 -6.36111e-015 -3.18055e-015 -0.0127986 0.00231987 8.32666e-005 5.29669e-031 -9.54166e-015 3.18055e-015 1.59028e-015 -6.36111e-015 -3.18055e-015 -0.016059 0.00298315 0.000853248 3.18055e-015 0 -1.59028e-015 1.59028e-015 -6.36111e-015 -3.18055e-015 -0.0125921 0.00311597 0.00282964 3.18055e-015 0 4.77083e-015 1.59028e-015 -6.36111e-015 -3.18055e-015 6.36111e-015 0 -3.18055e-015 6.36111e-015 0 -3.18055e-015 -33.3822 0.546881 -5.35103 7.43418 47.8459 -30.1595 62.6454 -39.5338 100.85 7.02529 12.1205 13.0139 1.98785e-015 -7.95139e-015 -1.19271e-015 1.19271e-015 -3.18055e-015 -6.95746e-016 -1.98626e-031 -3.18055e-015 -3.57812e-015 1.98785e-015 -7.95139e-015 -1.19271e-015 0.012946 0.00231732 -9.04483e-005 -2.78299e-015 1.59028e-015 -3.37934e-015 1.98785e-015 -7.95139e-015 -1.19271e-015 0.0163767 0.0030451 -0.000885301 -1.59028e-015 0 9.64106e-015 1.98785e-015 -7.95139e-015 -1.19271e-015 0.0146069 0.00367467 -0.00327463 1.8562e-006 1.00253e-005 -5.54999e-006 1.98785e-015 -7.95139e-015 -1.19271e-015 1.19271e-015 -3.18055e-015 -6.95746e-016 -1.98626e-031 -3.18055e-015 -3.57812e-015 -9.81885 -9.92665 -7.58406 4.48137 47.5922 -4.02218 -11.2718 12.1888 3.95386 -1.76556e-031 -6.36111e-015 -1.59028e-015 16.3973 4.26093 1.18893 -0.388436 15.9413 0.277255 8.21808 8.46748 -0.122528 3.17175e-006 2.37273e-006 -3.85676e-007 
0.240039 78.8545 9.09917 180 -84.4853 180 -0.025859 4.0273 -0.111209 -0.0440229 8.05464 -0.221416 -0.044023 8.05466 -0.221416 -0.151468 17.2392 -0.0139221 0.0363297 8.82021 -0.222378 -8.97849 32.7702 -11.379 42.1831 -55.5308 37.1998 -20.4362 -26.3625 22.9061 -14.6418 -1.28697 -30.2608 6.36111e-015 3.18055e-015 -0 -1.05934e-030 9.54166e-015 6.36111e-015 0 6.36111e-015 -0 6.36111e-015 3.18055e-015 -0 -0.0128687 0.00234051 8.59617e-005 4.77083e-015 6.36111e-015 3.18055e-015 6.36111e-015 3.18055e-015 -0 -0.016001 0.0029963 0.00085127 6.36111e-015 3.18055e-015 4.77083e-015 6.36111e-015 3.18055e-015 -0 -0.0125389 0.00312289 0.00282069 8.82781e-032 -3.18055e-015 1.59028e-015 6.36111e-015 3.18055e-015 -0 -1.05934e-030 9.54166e-015 6.36111e-015 0 6.36111e-015 -0 -31.8248 0.876449 -5.1695 6.8179 47.0589 -29.4601 62.1569 -41.6535 99.6458 7.26904 11.9357 13.949 8.12073e-006 7.04531e-006 -1.87856e-006 5.28685e-007 -2.88304e-006 1.79315e-006 2.94728e-006 -9.86462e-007 2.91055e-006 8.12073e-006 7.04531e-006 -1.87856e-006 0.0129175 0.00230794 -8.55354e-005 -1.48336e-006 2.51807e-006 5.13304e-006 8.12073e-006 7.04531e-006 -1.87856e-006 0.016334 0.00302707 -0.000867877 0 3.18055e-015 -0 8.12073e-006 7.04531e-006 -1.87856e-006 0.0146149 0.00369252 -0.00326828 2.94646e-006 -7.46583e-007 2.91088e-006 8.12073e-006 7.04531e-006 -1.87856e-006 5.28685e-007 -2.88304e-006 1.79315e-006 2.94728e-006 -9.86462e-007 2.91055e-006 -9.79104 -10.5501 -7.53893 4.4873 47.6256 -4.03102 -11.2215 12.3787 3.84782 6.00222e-007 1.30171e-007 -6.06648e-007 16.3984 3.72261 1.20162 -0.388533 15.977 0.282289 8.22469 8.6843 -0.0234606 -3.38376e-007 3.78787e-007 7.83734e-007 
0.240463 78.6318 9.07491 180 -84.9861 180 -0.0273841 4.10261 -0.111674 -0.0469084 8.20528 -0.222235 -0.0469085 8.2053 -0.222235 -0.201952 16.9858 -0.0190249 0.0482852 8.76071 -0.296485 -8.76577 32.1094 -11.4939 42.1832 -55.5308 37.1999 -20.5979 -26.5051 22.8347 -14.6418 -1.28695 -30.2608 0 0 -0 1.59028e-015 1.27222e-014 6.36111e-015 -1.59028e-015 0 -0 0 0 -0 -0.0128411 0.00232411 8.82476e-005 1.59028e-015 -3.18055e-015 1.59028e-015 0 0 -0 -0.0160549 0.00300046 0.000858785 9.54166e-015 3.18055e-015 1.59028e-015 0 0 -0 -0.0126696 0.00313763 0.00284488 -1.59028e-015 9.54166e-015 -1.59028e-015 0 0 -0 1.59028e-015 1.27222e-014 6.36111e-015 -1.59028e-015 0 -0 -30.2646 1.21158 -4.9966 6.22404 46.2663 -28.7826 61.5882 -43.7707 98.3714 7.51588 11.7547 14.8852 1.9035e-031 1.59028e-015 -6.85807e-015 1.98785e-015 4.77083e-015 -1.00386e-014 3.18055e-015 4.77083e-015 -1.31198e-014 1.9035e-031 1.59028e-015 -6.85807e-015 0.0129898 0.00231242 -8.17222e-005 7.95139e-016 1.59028e-015 9.93923e-015 1.9035e-031 1.59028e-015 -6.85807e-015 0.0163547 0.00303999 -0.000874979 2.38542e-015 1.59028e-015 6.36111e-015 1.9035e-031 1.59028e-015 -6.85807e-015 0.0146005 0.00369105 -0.00326677 -2.39587e-006 1.51986e-006 3.77643e-006 1.9035e-031 1.59028e-015 -6.85807e-015 1.98785e-015 4.77083e-015 -1.00386e-014 3.18055e-015 4.77083e-015 -1.31198e-014 -9.76254 -11.1746 -7.49335 4.49326 47.66 -4.04007 -11.1709 12.5684 3.74149 1.5028e-007 4.65783e-008 -1.51442e-007 16.3996 3.18364 1.21431 -0.388624 16.0138 0.287358 8.23092 8.90066 0.0757356 -2.18764e-006 -7.69609e-007 -2.79106e-006 
0.240897 78.4089 9.05012 180 -85.487 -180 -0.028905 4.17801 -0.112149 -0.0497842 8.35607 -0.223073 -0.0497842 8.35609 -0.223073 -0.252436 16.7321 -0.0243608 0.0601634 8.70117 -0.370585 -8.55605 31.4481 -11.6052 42.1833 -55.5307 37.2 -20.7601 -26.6477 22.7629 -14.6418 -1.28693 -30.2608 -1.51581e-006 5.60497e-006 1.45752e-006 -1.59028e-015 3.18055e-015 -4.77083e-015 -4.77083e-015 0 -6.36111e-015 -1.51581e-006 5.60497e-006 1.45752e-006 -0.0128518 0.00232252 9.15515e-005 -6.37516e-006 6.94273e-006 -2.78438e-006 -1.51581e-006 5.60497e-006 1.45752e-006 -0.0160062 0.00298139 0.000859736 9.54166e-015 0 -3.18055e-015 -1.51581e-006 5.60497e-006 1.45752e-006 -0.0126099 0.00312517 0.00283819 -1.59028e-015 -3.18055e-015 -0 -1.51581e-006 5.60497e-006 1.45752e-006 -1.59028e-015 3.18055e-015 -4.77083e-015 -4.77083e-015 0 -6.36111e-015 -28.702 1.55198 -4.83254 5.65163 45.4685 -28.126 60.9294 -45.8821 97.0165 7.76569 11.5776 15.8223 -3.97569e-016 -3.18055e-015 -1.19271e-015 -2.40085e-006 -1.16141e-005 2.17581e-006 1.49042e-005 1.3575e-005 3.66585e-006 -3.97569e-016 -3.18055e-015 -1.19271e-015 0.0129107 0.0023162 -8.98747e-005 -5.37712e-006 -9.435e-006 1.09311e-005 -3.97569e-016 -3.18055e-015 -1.19271e-015 0.0163176 0.00302783 -0.000865394 2.02905e-006 -3.19817e-006 -1.67269e-006 -3.97569e-016 -3.18055e-015 -1.19271e-015 0.0145177 0.00365319 -0.00324702 1.28305e-006 -7.48265e-007 2.48762e-006 -3.97569e-016 -3.18055e-015 -1.19271e-015 -2.40085e-006 -1.16141e-005 2.17581e-006 1.49042e-005 1.3575e-005 3.66585e-006 -9.73349 -11.7985 -7.44737 4.49937 47.6939 -4.04903 -11.1199 12.7578 3.63485 1.64887e-006 -4.69538e-006 4.10693e-007 16.4008 2.64411 1.22703 -0.388708 16.0512 0.292461 8.23681 9.11681 0.175019 -2.46179e-006 -9.1584e-007 1.72747e-006 
